<svg width="720" height="520" viewBox="0 0 720 520" fill="none" xmlns="http://www.w3.org/2000/svg">
  <rect width="720" height="520" rx="36" fill="#F5F6FA"/>
  <circle cx="558" cy="126" r="88" fill="#FEF0F1"/>
  <circle cx="162" cy="378" r="108" fill="#E9EEF6"/>
  <path d="M121 384C121 319.383 173.383 267 238 267H413C477.617 267 530 319.383 530 384V401C530 412.046 521.046 421 510 421H141C129.954 421 121 412.046 121 401V384Z" fill="white" stroke="#D8E0EC" stroke-width="12"/>
  <path d="M194 254L308 167C326.999 152.501 353.001 152.501 372 167L486 254" stroke="#24304A" stroke-width="16" stroke-linecap="round" stroke-linejoin="round"/>
  <path d="M238 420V311C238 299.954 246.954 291 258 291H393C404.046 291 413 299.954 413 311V420" stroke="#24304A" stroke-width="16" stroke-linecap="round" stroke-linejoin="round"/>
  <rect x="296" y="330" width="58" height="90" rx="18" fill="#FEF0F1" stroke="#C41E3A" stroke-width="12"/>
  <path d="M564 143C564 183.928 530.928 217 490 217C449.072 217 416 183.928 416 143C416 102.072 449.072 69 490 69C530.928 69 564 102.072 564 143Z" fill="white" stroke="#24304A" stroke-width="14"/>
  <path d="M490 106V144L520 159" stroke="#C41E3A" stroke-width="14" stroke-linecap="round" stroke-linejoin="round"/>
  <circle cx="490" cy="143" r="11" fill="#C41E3A"/>
  <path d="M604 152C604 216.065 552.065 268 488 268" stroke="#C41E3A" stroke-width="12" stroke-linecap="round"/>
  <path d="M632 152C632 231.529 567.529 296 488 296" stroke="#CDA35A" stroke-width="12" stroke-linecap="round"/>
  <path d="M385 126C385 167.421 351.421 201 310 201C268.579 201 235 167.421 235 126C235 84.5786 268.579 51 310 51C351.421 51 385 84.5786 385 126Z" fill="white" stroke="#24304A" stroke-width="14"/>
  <path d="M310 91C322.703 91 333 101.297 333 114C333 129.671 310 159 310 159C310 159 287 129.671 287 114C287 101.297 297.297 91 310 91Z" fill="#C41E3A"/>
  <circle cx="310" cy="114" r="8" fill="white"/>
  <path d="M76 137C76 109.386 98.3858 87 126 87H167" stroke="#CDA35A" stroke-width="12" stroke-linecap="round"/>
  <path d="M86 180C86 163.431 99.4315 150 116 150H177" stroke="#24304A" stroke-width="12" stroke-linecap="round"/>
  <path d="M100 222H188" stroke="#C41E3A" stroke-width="12" stroke-linecap="round"/>
</svg>
